<?xml version="1.0" encoding="UTF-8"?>
<svg id="Layer_1" data-name="Layer 1" xmlns="http://www.w3.org/2000/svg" viewBox="0 0 56.69 50.08">
  <defs>
    <style>
      .cls-1 {
        fill: #000;
        stroke-width: 0px;
      }
    </style>
  </defs>
  <path id="Path_48067" data-name="Path 48067" class="cls-1" d="M12.29,3.37c6.5,4.9,13.49,14.82,16.06,20.15v14.07c0-.3-.12.04-.36.77-1.34,3.95-6.57,19.35-18.53,7.04-6.3-6.49-3.39-12.97,8.08-14.93-6.56,1.12-13.93-.73-15.96-7.99C.99,20.39,0,7.54,0,5.8,0-2.9,7.6-.16,12.29,3.37M44.41,3.37c-6.5,4.9-13.49,14.82-16.06,20.15v14.07c0-.3.12.04.36.77,1.34,3.95,6.57,19.35,18.53,7.04,6.3-6.48,3.38-12.97-8.08-14.93,6.56,1.12,13.93-.73,15.96-7.99.58-2.09,1.57-14.94,1.57-16.68,0-8.7-7.6-5.96-12.29-2.43h0Z"/>
</svg>