<?xml version="1.0" encoding="UTF-8"?>
<svg id="Layer_1" data-name="Layer 1" xmlns="http://www.w3.org/2000/svg" viewBox="0 0 56.69 42.95">
  <defs>
    <style>
      .cls-1 {
        fill: #fff;
        stroke-width: 0px;
      }
    </style>
  </defs>
  <path id="Path_49115" data-name="Path 49115" class="cls-1" d="M48.02,3.6c-3.72-1.71-7.65-2.92-11.69-3.6-.55.99-1.05,2-1.5,3.04-4.3-.65-8.67-.65-12.97,0-.45-1.04-.95-2.06-1.5-3.04-4.04.69-7.97,1.9-11.7,3.6C2.05,12.95-.93,24.37.25,35.75c4.33,3.2,9.18,5.64,14.34,7.2,1.16-1.56,2.19-3.22,3.07-4.95-1.68-.63-3.3-1.4-4.84-2.31.4-.29.8-.6,1.19-.89,9.08,4.27,19.59,4.27,28.67,0,.39.32.78.62,1.19.89-1.54.91-3.17,1.69-4.84,2.31.88,1.73,1.91,3.39,3.07,4.95,5.16-1.56,10.01-3.99,14.35-7.19,1.18-11.38-1.81-22.81-8.42-32.15M18.94,29.28c-2.96-.17-5.24-2.69-5.1-5.66-.17-2.97,2.11-5.51,5.08-5.68,0,0,.01,0,.02,0,2.96.13,5.25,2.64,5.12,5.6,0,.03,0,.05,0,.08.14,2.96-2.14,5.49-5.1,5.66M37.77,29.28c-2.96-.17-5.24-2.69-5.1-5.66-.17-2.97,2.11-5.51,5.08-5.68,0,0,.01,0,.02,0,2.95.14,5.23,2.64,5.1,5.6,0,.03,0,.05,0,.08.14,2.96-2.13,5.49-5.09,5.66"/>
</svg>