<?xml version="1.0" encoding="UTF-8"?>
<svg id="Layer_1" data-name="Layer 1" xmlns="http://www.w3.org/2000/svg" viewBox="0 0 202.26 79.26">
  <defs>
    <style>
      .cls-1 {
        fill: #111;
      }

      .cls-2 {
        fill: #ff0050;
      }

      .cls-3 {
        fill: #00faf0;
      }
    </style>
  </defs>
  <path class="cls-3" d="M27.26,31.2v-3.07c-1.07-.13-2.16-.21-3.24-.21C10.77,27.91.01,38.64,0,51.9c0,7.85,3.83,15.21,10.26,19.7-4.15-4.43-6.46-10.27-6.45-16.34.03-13.04,10.41-23.7,23.45-24.06Z"/>
  <path class="cls-3" d="M27.85,66.14c5.87-.03,10.68-4.67,10.93-10.54V3.33h9.56c-.21-1.1-.31-2.21-.3-3.33h-13.06v52.27c-.25,5.87-5.06,10.51-10.93,10.54-1.77,0-3.52-.44-5.08-1.28,2.04,2.89,5.35,4.61,8.88,4.61Z"/>
  <path class="cls-3" d="M66.26,21.08v-2.9c-3.52,0-6.96-1.01-9.9-2.94,2.6,2.95,6.06,4.99,9.9,5.84Z"/>
  <path class="cls-2" d="M56.37,15.24c-2.88-3.29-4.48-7.52-4.48-11.9h-3.5c.94,4.88,3.82,9.18,7.98,11.9Z"/>
  <path class="cls-2" d="M24.05,40.92c-6.04-.02-10.96,4.86-10.98,10.9-.02,4.1,2.26,7.86,5.9,9.75-3.56-4.88-2.49-11.71,2.39-15.27,1.88-1.37,4.16-2.11,6.49-2.1,1.1,0,2.19.17,3.24.51v-13.3c-1.07-.13-2.16-.21-3.24-.21h-.59v10.24c-1.04-.34-2.12-.52-3.21-.52Z"/>
  <path class="cls-2" d="M66.26,21.08v10.15c-6.51,0-12.86-2.04-18.14-5.85v26.5c.05,13.25-10.66,24.04-23.91,24.09-4.99.02-9.87-1.52-13.95-4.41,9,9.73,24.18,10.32,33.92,1.32,4.92-4.55,7.72-10.96,7.7-17.66v-26.52c5.29,3.8,11.63,5.85,18.14,5.85v-13.04c-1.26-.04-2.52-.18-3.76-.43Z"/>
  <path class="cls-1" d="M48.08,51.89v-26.5c5.3,3.81,11.66,5.86,18.18,5.85v-10.15c-3.84-.84-7.31-2.89-9.9-5.85-4.18-2.7-7.05-7.01-7.94-11.9h-9.56v52.26c-.25,5.87-5.06,10.51-10.93,10.54-3.53.01-6.84-1.69-8.88-4.57-5.36-2.78-7.45-9.39-4.67-14.75,1.89-3.64,5.65-5.92,9.75-5.9,1.1,0,2.19.17,3.24.51v-10.23c-13.04.3-23.44,10.96-23.44,24-.02,6.07,2.29,11.92,6.45,16.34,10.87,7.59,25.83,4.93,33.42-5.94,2.8-4.02,4.31-8.79,4.32-13.69l-.04-.02Z"/>
  <path class="cls-1" d="M98.32,14.01h-6.21v9.11h-7.21v6.2h7.21v12.65l-7.21,1v6.54l7.21-1v10.83c-.01.87-.71,1.56-1.58,1.57h-5.2v6.2h7.78c2.87,0,5.19-2.33,5.2-5.2v-14.3l6.3-1v-6.54l-6.3,1v-11.69h6.3v-6.2h-6.3v-9.17Z"/>
  <path class="cls-1" d="M133.47,14.01h-6.16v32.4l-20.43,1.77v6.52l20.43-1.72v14.55h6.16v-15.1l6.3-.57v-6.54l-6.3.57V14.01Z"/>
  <path class="cls-1" d="M124.11,21.22l-14.65-2.62v6.58l14.66,2.58v-6.54Z"/>
  <path class="cls-1" d="M124.11,34.82l-14.65-2.62v6.58l14.66,2.62v-6.58Z"/>
  <path class="cls-1" d="M190.14,32.1l1-5.06h-6.54l-1,5.06h-17.14l-.76-5.06h-6.59l.81,5.06h-12.42v6.06h54.76v-6.06h-12.12Z"/>
  <path class="cls-1" d="M200.55,18.31h-20.77l-1.05-4.29h-8.07l1.05,4.29h-22.45v6h51.32l-.03-6Z"/>
  <path class="cls-1" d="M192.09,42.6h-34.42c-2.87,0-5.19,2.33-5.2,5.2v14.17c0,2.87,2.33,5.19,5.2,5.2h34.42c2.87,0,5.19-2.33,5.2-5.2v-14.17c.01-2.86-2.3-5.19-5.16-5.2-.01,0-.03,0-.04,0ZM159.86,48.23h30.08c.87,0,1.57.7,1.58,1.57v2.53h-33.18v-2.53c-.04-.82.59-1.52,1.41-1.57.04,0,.08,0,.12,0h-.01ZM189.94,61.59h-30.07c-.87,0-1.57-.7-1.58-1.57v-2.58h33.18v2.58c.01.85-.67,1.55-1.52,1.57h-.01Z"/>
</svg>