<?xml version="1.0" encoding="UTF-8"?>
<svg id="Layer_1" data-name="Layer 1" xmlns="http://www.w3.org/2000/svg" viewBox="0 0 56.69 56.69">
  <defs>
    <style>
      .cls-1 {
        fill: #fff;
        stroke-width: 0px;
      }
    </style>
  </defs>
  <g id="Group_5" data-name="Group 5">
    <path id="Path_4" data-name="Path 4" class="cls-1" d="M28.35,5.11c7.57,0,8.46.03,11.45.17,1.8.02,3.58.35,5.26.98,2.47.95,4.42,2.91,5.38,5.38.62,1.69.95,3.47.98,5.26.14,2.99.17,3.89.17,11.45s-.03,8.46-.17,11.45c-.02,1.8-.35,3.58-.98,5.26-.95,2.47-2.91,4.43-5.38,5.38-1.69.62-3.47.95-5.26.98-2.99.14-3.89.17-11.45.17s-8.46-.03-11.45-.17c-1.8-.02-3.58-.35-5.26-.98-2.47-.95-4.43-2.91-5.38-5.38-.62-1.69-.95-3.47-.98-5.26-.14-2.99-.17-3.89-.17-11.45s.03-8.46.17-11.45c.02-1.8.35-3.58.98-5.26.95-2.47,2.91-4.42,5.38-5.38,1.69-.62,3.47-.95,5.26-.98,2.99-.14,3.89-.17,11.45-.17M28.35,0C20.65,0,19.69.04,16.66.18c-2.35.05-4.68.49-6.88,1.32C5.98,2.97,2.97,5.98,1.49,9.78.67,11.98.22,14.31.18,16.66c-.14,3.02-.18,3.99-.18,11.69s.03,8.66.18,11.69c.05,2.35.49,4.68,1.32,6.88,1.47,3.81,4.48,6.82,8.29,8.29,2.2.82,4.53,1.27,6.88,1.32,3.02.14,3.99.18,11.69.18s8.66-.03,11.69-.18c2.35-.05,4.68-.49,6.88-1.32,3.81-1.47,6.82-4.48,8.29-8.29.82-2.2,1.27-4.53,1.32-6.88.14-3.02.18-3.99.18-11.69s-.03-8.66-.18-11.69c-.05-2.35-.49-4.68-1.32-6.88-1.47-3.81-4.48-6.82-8.29-8.29-2.2-.82-4.53-1.27-6.88-1.32-3.02-.14-3.99-.18-11.69-.18h0Z"/>
    <path id="Path_5" data-name="Path 5" class="cls-1" d="M28.35,13.79c-8.04,0-14.56,6.51-14.56,14.55,0,8.04,6.51,14.56,14.55,14.56,8.04,0,14.56-6.51,14.56-14.55h0c0-8.04-6.52-14.56-14.55-14.56h0ZM28.35,37.79c-5.22,0-9.45-4.23-9.45-9.45s4.23-9.45,9.45-9.45c5.22,0,9.45,4.23,9.45,9.45s-4.23,9.45-9.45,9.45h0Z"/>
    <circle id="Ellipse_1" data-name="Ellipse 1" class="cls-1" cx="43.48" cy="13.22" r="3.4"/>
  </g>
</svg>