<?xml version="1.0" encoding="UTF-8"?>
<svg id="Layer_1" data-name="Layer 1" xmlns="http://www.w3.org/2000/svg" viewBox="0 0 80.23 29.96">
  <defs>
    <style>
      .cls-1 {
        fill: #ff4906;
        fill-rule: evenodd;
      }
    </style>
  </defs>
  <g id="_4.0高保真-011" data-name="4.0高保真-011">
    <g id="logo">
      <g id="_橙灰" data-name="橙灰">
        <path id="Clip-2备份-12" d="M46.87,5.13h-.03s-2.03,0-2.03,0v1.89s-3.9,0-3.9,0c-.35,0-.63.27-.64.6v.03s0,2.01,0,2.01h4.55s0,3.6,0,3.6v1.46s0,.16,0,.16v.16c-.01.27-.02.6-.04.85v.15s-.04.35-.04.35h-4.73c-.35,0-.63.27-.64.6v.03s0,2.01,0,2.01c3.06,0,4.8,0,5.21,0-.96,2.68-2.75,4.42-5.21,5.39.06.22.45,1.51.64,2.17.06.21.37.27.52.21,1.77-.7,4.89-2.46,6.47-6.66,1.4,3.99,4.65,5.85,6.12,6.51.04.02.08.04.12.05.49.21.7,0,.78-.26.24-.79.44-1.47.61-2.03-1-.4-3.95-1.67-5.2-5.39.56,0,2.08,0,4.56,0h.03c.33-.01.6-.28.62-.6v-.03s0-2.01,0-2.01h-1.28s0-8.74,0-8.74c0-.34-.27-.62-.61-.63h-.03s-5.21,0-5.21,0v-1.27s0-.01,0-.01h0c-.02-.32-.27-.58-.58-.61h-.03ZM37.37,5.13h-2.03v21.02c0,.34.27.62.61.63h.03s2.03-.01,2.03-.01v-12.76s1.58,0,1.58,0h.03c.33-.01.6-.28.62-.6v-.03s0-2.01,0-2.01h-2.23s0-5.6,0-5.6v-.03c-.01-.33-.28-.59-.61-.61h-.03ZM76.29,5.38c-.36.51-1.04,1.08-2.05,1.1,0,0-5.2,0-15.6,0v2.01c0,.33.25.6.58.63h.03s.03,0,.03,0h8.21v3.46h-7.46c-.35,0-.63.27-.64.6v.03s0,2.01,0,2.01h8.11s0,3.15,0,3.15h-9.78c-.35,0-.63.27-.64.6v.03s0,2.01,0,2.01h10.43s0,2.35,0,2.35v.04s0,.02,0,.02v.04c-.06.37-.38.66-.76.67h-.04s-3.6,0-3.6,0l.58,2.16c.08.26.29.46.56.48h.03s.03,0,.03,0h2.47s.06,0,.06,0h.06c1.81-.1,3.24-1.58,3.27-3.37v-.06s0-2.33,0-2.33h9.4s.03,0,.03,0c.33-.01.6-.28.62-.6v-.03s0-2.01,0-2.01h-10.05v-3.15h7s.03,0,.03,0c.33-.01.6-.28.62-.6v-.03s0-2.01,0-2.01h-7.65v-3.46c.89,0,2.22,0,4.01,0,2.92.01,4.41-2.1,4.81-3.08-.59-.25-1.4-.6-1.93-.82-.37-.16-.64-.02-.77.17ZM33.57,8.01h-2.03v7.2s0,.23,0,.23v.15c-.04,1.5-.29,3.02-.76,4.54-.1.31.06.63.35.76h.03s1.97.67,1.97.67c.68-1.87,1.04-3.84,1.08-5.99v-.17s0-.17,0-.17v-.71s0,0,0,0v-5.88s0-.02,0-.02h0c-.02-.33-.26-.58-.58-.61h-.03s-.03,0-.03,0ZM47.49,9.66h3.18v6.74s-3.26,0-3.26,0l.03-.4c.03-.38.04-.86.05-1.28v-.18s0-.45,0-.45v-4.43Z"/>
        <path id="_形状结合" data-name="形状结合" class="cls-1" d="M21.02,15.37c2.9,0,5.26,2.34,5.26,5.22v4.15c0,2.89-2.35,5.22-5.26,5.22h-7.73c-2.33,0-4.31-1.51-5-3.6l-4.6,2.29c-1.26.63-2.79.12-3.42-1.13-.18-.35-.27-.74-.27-1.14v-7.44c0-1.4,1.14-2.54,2.55-2.54.4,0,.79.09,1.15.27l4.58,2.31c.68-2.11,2.66-3.63,5.01-3.63h7.73ZM20.99,18.06h-7.62c-1.44,0-2.6,1.15-2.63,2.57v4.04c0,1.43,1.15,2.59,2.58,2.61h7.62c1.44,0,2.6-1.15,2.63-2.57v-4.04c0-1.43-1.15-2.59-2.58-2.61ZM3.4,19.68c-.38,0-.69.3-.7.68v4.68c0,.11.03.22.08.31.17.34.58.47.92.31h.01s4.32-2.2,4.32-2.2v-1.55l-4.32-2.16c-.1-.05-.2-.07-.31-.07ZM9.81,0c2.67,0,4.99,1.46,6.21,3.62,1.09-1,2.55-1.62,4.15-1.62,3.37,0,6.11,2.72,6.11,6.07s-2.73,6.07-6.11,6.07c-2.03,0-3.82-.98-4.93-2.49-1.3,1.53-3.25,2.49-5.42,2.49-3.93,0-7.11-3.16-7.11-7.07S5.89,0,9.81,0ZM9.81,2.84c-2.35,0-4.25,1.89-4.25,4.23s1.9,4.23,4.25,4.23,4.25-1.89,4.25-4.23-1.9-4.23-4.25-4.23ZM20.17,4.84c-1.79,0-3.25,1.44-3.25,3.23s1.45,3.23,3.25,3.23,3.25-1.44,3.25-3.23-1.45-3.23-3.25-3.23Z"/>
      </g>
    </g>
  </g>
</svg>