<?xml version="1.0" encoding="UTF-8"?>
<svg id="Layer_1" data-name="Layer 1" xmlns="http://www.w3.org/2000/svg" viewBox="0 0 56.69 56.69">
  <defs>
    <style>
      .cls-1 {
        fill: #000;
        stroke-width: 0px;
      }
    </style>
  </defs>
  <path class="cls-1" d="M48.31,48.31h-8.4v-13.16c0-3.14-.06-7.18-4.37-7.18s-5.04,3.42-5.04,6.95v13.38h-8.4v-27.05h8.06v3.7h.11c1.64-2.81,4.7-4.49,7.96-4.37,8.51,0,10.08,5.6,10.08,12.89v14.84ZM12.61,17.55c-2.69,0-4.88-2.18-4.88-4.87,0-2.69,2.18-4.88,4.87-4.88,2.69,0,4.88,2.18,4.88,4.87,0,1.29-.51,2.53-1.43,3.45-.91.91-2.15,1.43-3.45,1.43M16.81,48.31h-8.41v-27.05h8.41v27.05ZM52.49,0H4.18C1.9-.02.03,1.81,0,4.09v48.51c.03,2.28,1.9,4.12,4.18,4.09h48.31c2.29.03,4.17-1.8,4.2-4.09V4.09C56.66,1.8,54.78-.03,52.49,0"/>
</svg>