<?xml version="1.0" encoding="UTF-8"?>
<svg id="Layer_1" data-name="Layer 1" xmlns="http://www.w3.org/2000/svg" viewBox="0 0 56.69 56.8">
  <defs>
    <style>
      .cls-1 {
        fill: #000;
        stroke-width: 0px;
      }
    </style>
  </defs>
  <path id="Path_23" data-name="Path 23" class="cls-1" d="M28.37,0C12.69,0,0,12.72,0,28.39c0,11.67,7.16,22.15,18.02,26.41-.38-2.71-.35-5.45.09-8.15.51-2.22,3.32-14.1,3.32-14.1-.57-1.33-.86-2.76-.84-4.2,0-3.95,2.29-6.88,5.14-6.88,1.97-.03,3.59,1.54,3.62,3.51,0,.16,0,.33-.03.49,0,2.43-1.54,6.07-2.36,9.46-.56,2.21.77,4.45,2.98,5.02.4.1.81.14,1.22.12,5.04,0,8.92-5.32,8.92-12.98.2-6.18-4.65-11.35-10.83-11.55-.34-.01-.69,0-1.03.01-6.77-.3-12.51,4.95-12.81,11.73,0,.19-.01.39-.01.58,0,2.32.74,4.59,2.1,6.47.2.22.28.53.19.82-.21.88-.71,2.82-.79,3.22-.12.51-.42.63-.96.37-3.55-1.66-5.77-6.82-5.77-11,0-8.94,6.49-17.16,18.75-17.16,9.83,0,17.49,7,17.49,16.39s-6.16,17.64-14.71,17.64c-2.58.09-5.03-1.14-6.49-3.27,0,0-1.42,5.42-1.77,6.75-.84,2.63-2.02,5.13-3.53,7.45,14.98,4.63,30.88-3.77,35.51-18.75S51.66,5.9,36.67,1.27C33.98.44,31.18.01,28.36,0h0Z"/>
</svg>