<?xml version="1.0" encoding="UTF-8"?>
<svg id="Layer_1" data-name="Layer 1" xmlns="http://www.w3.org/2000/svg" viewBox="0 0 56.69 49.53">
  <defs>
    <style>
      .cls-1 {
        fill: #fff;
        stroke-width: 0px;
      }
    </style>
  </defs>
  <path class="cls-1" d="M56.69,24.73c0-4.57-3.7-8.27-8.27-8.27-1.9,0-3.64.64-5.03,1.72-3.8-2.35-8.6-3.83-13.85-4.03,0,0,0-.02,0-.03,0-3.53,2.64-6.44,6.05-6.91.61,2.58,2.93,4.5,5.7,4.5,3.24,0,5.86-2.62,5.86-5.86,0-3.24-2.62-5.86-5.86-5.86-2.82,0-5.18,2-5.74,4.66-4.8.49-8.54,4.54-8.55,9.47,0,.01,0,.02,0,.03-5.19.22-9.94,1.7-13.7,4.03-1.4-1.08-3.15-1.73-5.05-1.73-4.57,0-8.27,3.7-8.27,8.27,0,3.31,1.95,6.17,4.77,7.48.27,9.6,10.73,17.32,23.6,17.32s23.34-7.73,23.6-17.34c2.79-1.33,4.73-4.17,4.73-7.47ZM19.65,37.81c-.02-.06-.04-.12-.05-.18-.04-.36.23-.68.59-.71,2.71-.27,5.44-.4,8.17-.4h0c2.73,0,5.46.13,8.17.4.06,0,.13.02.18.05.33.14.49.52.36.85-.96,2.29-2.78,4.11-5.07,5.07-1.18.5-2.41.73-3.62.73h-.11c-3.66-.03-7.13-2.21-8.63-5.8ZM17.23,34.2c-2.03.04-3.71-1.58-3.75-3.61,0-.24.01-.49.06-.72-.12-2.42,1.73-4.49,4.16-4.64,2.17,0,3.82,2.34,3.69,5.15,0,0,0,0,0,0h0s0,0,0,0c.07,2.06-1.55,3.78-3.61,3.85-.18,0-.37,0-.55-.02ZM35.35,30.38s0,0,0,0h0s0,0,0,0c-.13-2.81,1.53-5.15,3.69-5.15,2.42.15,4.27,2.22,4.16,4.64.04.24.06.48.06.72-.04,2.03-1.72,3.65-3.75,3.61-.18.02-.37.03-.55.02-2.06-.07-3.67-1.79-3.61-3.85Z"/>
  <polygon class="cls-1" points="21.39 30.38 21.39 30.38 21.39 30.38 21.39 30.38"/>
  <polygon class="cls-1" points="35.35 30.38 35.35 30.38 35.35 30.38 35.35 30.38"/>
  <path class="cls-1" d="M40.87,26.81h0c.55-.05,1.04.37,1.08.92.05.55-.37,1.04-.92,1.08-.55.05-1.04-.37-1.08-.92,0-.03,0-.05,0-.08-.02-.53.39-.98.92-1Z"/>
  <path class="cls-1" d="M19.21,28.81c.55-.05.97-.53.92-1.08-.05-.55-.53-.97-1.08-.92h0c-.53.02-.95.47-.92,1,0,.03,0,.05,0,.08.05.55.53.97,1.08.92Z"/>
  <path class="cls-1" d="M41.04,28.81c.55-.05.97-.53.92-1.08-.05-.55-.53-.97-1.08-.92h0c-.53.02-.95.47-.92,1,0,.03,0,.05,0,.08.05.55.53.97,1.08.92Z"/>
</svg>