<?xml version="1.0" encoding="UTF-8"?>
<svg id="Layer_1" data-name="Layer 1" xmlns="http://www.w3.org/2000/svg" viewBox="0 0 30 30">
  <defs>
    <style>
      .cls-1 {
        fill: #fff;
      }
    </style>
  </defs>
  <g id="Group_33688" data-name="Group 33688">
    <path id="Path_45984" data-name="Path 45984" class="cls-1" d="M25.31,20.63c-1.27,0-2.49.52-3.37,1.43l-12.63-6.31c.08-.49.08-.99,0-1.49l12.63-6.31c1.8,1.86,4.77,1.91,6.63.11s1.91-4.77.11-6.63c-1.8-1.86-4.77-1.91-6.63-.11-.91.88-1.43,2.1-1.43,3.37,0,.25.02.5.06.74l-12.63,6.31c-1.8-1.86-4.77-1.91-6.63-.11-1.86,1.8-1.91,4.77-.11,6.63,1.8,1.86,4.77,1.91,6.63.11.04-.04.08-.08.11-.11l12.63,6.31c-.04.25-.06.49-.06.74,0,2.59,2.1,4.69,4.69,4.69s4.69-2.1,4.69-4.69-2.1-4.69-4.69-4.69"/>
  </g>
</svg>