<?xml version="1.0" encoding="UTF-8"?>
<svg id="Layer_1" data-name="Layer 1" xmlns="http://www.w3.org/2000/svg" viewBox="0 0 56.14 300">
  <polygon points=".62 299.98 6.68 299.98 6.68 273.6 25.44 273.6 25.44 294.97 31.27 294.97 31.27 273.62 49.54 273.62 49.54 300 55.6 300 55.6 266.12 .62 266.12 .62 299.98"/>
  <polygon points=".62 67.93 25.63 67.93 25.63 97.57 .62 97.57 .62 105.05 55.6 105.03 55.6 97.55 31.08 97.55 31.08 67.93 55.6 67.93 55.6 60.45 .62 60.45 .62 67.93"/>
  <path d="M.62,133.29c-.02.58.17,1.16.54,1.61.32.41.75.73,1.23.92l13.28,5.14v24.67l-13.29,5.14c-.49.19-.93.51-1.27.92-.34.46-.51,1.03-.48,1.61v5.76l54.98-21.98v-7.56L.62,127.54v5.76ZM21.03,143.04l22.33,8.63c.69.27,1.47.54,2.34.81.87.27,1.83.54,2.88.82-1.76.43-3.49.98-5.18,1.63l-22.37,8.63v-20.53Z"/>
  <path d="M5.03,30.83c1.55,1.58,3.41,2.8,5.47,3.61,2.16.83,4.46,1.24,6.77,1.23,1.98.06,3.95-.33,5.76-1.13,1.51-.72,2.85-1.73,3.95-2.99,1.09-1.27,1.99-2.69,2.67-4.22.72-1.57,1.36-3.18,1.92-4.83s1.11-3.26,1.63-4.83c.48-1.47,1.1-2.88,1.86-4.22.65-1.16,1.53-2.18,2.59-2.99,1.12-.79,2.47-1.19,3.84-1.13,1.15,0,2.29.21,3.36.65,1.03.43,1.96,1.08,2.7,1.92.81.94,1.43,2.03,1.82,3.2.47,1.42.7,2.91.67,4.41.04,1.53-.18,3.05-.65,4.51-.37,1.11-.86,2.17-1.44,3.18-.44.75-.92,1.48-1.44,2.19-.37.42-.6.95-.65,1.52-.02.36.09.71.29,1,.24.3.53.54.86.73l3.47,1.78c1.85-1.9,3.28-4.16,4.22-6.64.99-2.69,1.48-5.54,1.44-8.4.05-2.48-.38-4.95-1.27-7.27-.75-1.98-1.9-3.78-3.36-5.31-1.37-1.41-3.02-2.53-4.83-3.28-1.79-.75-3.7-1.13-5.64-1.13-2.1-.06-4.18.32-6.12,1.13-1.57.69-2.97,1.71-4.12,2.97-1.11,1.25-2.02,2.67-2.69,4.2-.69,1.58-1.3,3.19-1.82,4.83l-1.53,4.83c-.45,1.46-1.06,2.87-1.82,4.2-.67,1.17-1.57,2.19-2.67,2.97-1.21.8-2.64,1.19-4.09,1.13-1.41.02-2.8-.24-4.11-.77-1.2-.49-2.28-1.25-3.17-2.21-.92-1.02-1.62-2.21-2.05-3.51-.51-1.52-.75-3.12-.73-4.72-.05-1.83.24-3.66.86-5.39.5-1.32,1.15-2.58,1.92-3.76.59-.9,1.23-1.76,1.92-2.59.49-.5.79-1.15.86-1.84,0-.34-.1-.67-.29-.96-.19-.29-.43-.54-.71-.75L7.16,0C4.92,2.12,3.14,4.67,1.92,7.5.61,10.57-.05,13.89,0,17.23c-.04,2.66.41,5.31,1.34,7.81.82,2.16,2.07,4.14,3.68,5.79Z"/>
  <path d="M.62,209.53h22.94l.02,5.62c.05.79-.09,1.58-.4,2.3-.32.58-.77,1.07-1.32,1.44l-19.66,14.27c-1.04.63-1.65,1.78-1.57,2.99v6.6l21.83-16.02c.95-.64,1.75-1.48,2.34-2.46.44,1.99,1.17,3.9,2.17,5.68.89,1.61,2.05,3.05,3.43,4.26,1.34,1.16,2.88,2.07,4.55,2.67,1.75.62,3.59.94,5.45.92,2.16.03,4.31-.37,6.31-1.19,1.88-.8,3.53-2.06,4.8-3.66,1.43-1.86,2.47-4,3.05-6.27.75-2.94,1.11-5.98,1.06-9.02v-15.54H.62v7.41ZM28.97,209.53h20.76v8.15c.24,3.4-.63,6.79-2.49,9.65-1.79,2.22-4.56,3.43-7.41,3.24-1.51.02-3.01-.27-4.41-.84-1.32-.56-2.5-1.42-3.43-2.51-1.02-1.22-1.77-2.63-2.23-4.14-.56-1.87-.82-3.81-.79-5.76v-7.79Z"/>
</svg>