<?xml version="1.0" encoding="UTF-8"?>
<svg id="Layer_1" data-name="Layer 1" xmlns="http://www.w3.org/2000/svg" viewBox="0 0 56.69 45.92">
  <defs>
    <style>
      .cls-1 {
        fill: #fff;
        stroke-width: 0px;
      }
    </style>
  </defs>
  <g id="Group_33749" data-name="Group 33749">
    <path id="Path_48087" data-name="Path 48087" class="cls-1" d="M42.59,22.11c-.8-.24-1.35-.4-.93-1.45.9-2.28,1-4.24.02-5.64-1.84-2.63-6.88-2.49-12.65-.07,0,0-1.81.79-1.35-.64.89-2.85.75-5.25-.63-6.62-3.13-3.14-11.46.12-18.6,7.26C3.11,20.28,0,25.95,0,30.85c0,9.37,12.02,15.07,23.78,15.07,15.42,0,25.67-8.96,25.67-16.07,0-4.3-3.62-6.74-6.87-7.74M23.82,42.56c-9.38.93-17.49-3.31-18.1-9.48s6.51-11.91,15.89-12.83,17.49,3.31,18.1,9.47-6.51,11.91-15.89,12.84"/>
    <path id="Path_48088" data-name="Path 48088" class="cls-1" d="M52.82,4.96C49.23.97,43.79-.79,38.54.33h0c-1.17.25-1.92,1.4-1.67,2.58.25,1.17,1.4,1.92,2.58,1.67,5.76-1.23,11.44,2.44,12.67,8.2.39,1.83.3,3.74-.28,5.52h0c-.37,1.14.25,2.36,1.39,2.73,0,0,0,0,0,0h0c1.14.37,2.36-.26,2.73-1.39h0c1.65-5.11.46-10.71-3.14-14.69"/>
    <path id="Path_48089" data-name="Path 48089" class="cls-1" d="M46.28,18.47c.98.32,2.04-.22,2.35-1.2,1.25-3.84-.85-7.96-4.69-9.2-1.22-.4-2.53-.46-3.79-.19-1.01.2-1.67,1.18-1.47,2.19.2.99,1.15,1.65,2.14,1.48l.11-.02h0c1.93-.42,3.82.8,4.24,2.73.13.62.1,1.26-.1,1.87h0c-.32.98.22,2.04,1.2,2.35"/>
    <path id="Path_48090" data-name="Path 48090" class="cls-1" d="M24.75,25c-4.51-1.13-9.21.92-11.45,4.99-1.76,3.42-.42,7.62,3,9.38.46.24.94.42,1.44.55,4.75,1.49,9.87-.69,12.1-5.14,1.89-4.23-.47-8.59-5.09-9.79M21.34,35.24c-.91,1.45-2.72,2.04-4.32,1.41-1.25-.57-1.8-2.05-1.23-3.3.07-.16.16-.31.27-.45.9-1.41,2.66-2,4.23-1.43,1.27.54,1.86,2.01,1.32,3.28-.07.17-.16.33-.27.48M24.34,31.4c-.33.56-1.01.81-1.62.6-.48-.2-.71-.75-.51-1.24.03-.06.06-.12.09-.17.32-.55.98-.8,1.58-.59.49.18.74.73.55,1.22-.02.07-.06.13-.09.19"/>
  </g>
</svg>