<?xml version="1.0" encoding="UTF-8"?>
<svg id="Layer_1" data-name="Layer 1" xmlns="http://www.w3.org/2000/svg" viewBox="0 0 56.69 56.03">
  <defs>
    <style>
      .cls-1 {
        fill: #fff;
        stroke-width: 0px;
      }
    </style>
  </defs>
  <path id="Path_48069" data-name="Path 48069" class="cls-1" d="M55.88,43.23c-9.94-4.81-11.52-12.24-11.59-12.79-.21-.68,0-1.42.55-1.87.71-.66,3.86-2.61,4.73-3.22,1.44-1.01,2.09-2.02,1.61-3.26-.33-.78-1.13-1.26-1.97-1.18-.27,0-.53.03-.79.09-1.59.35-3.13,1.14-4.02,1.36-.11.03-.22.04-.33.04-.48,0-.66-.21-.61-.79.23-2.76.25-5.53.07-8.29-.11-3.13-1.33-6.11-3.44-8.42C37.08,1.64,32.78-.14,28.34,0c-4.44-.15-8.73,1.63-11.75,4.89-2.12,2.31-3.34,5.3-3.44,8.43-.17,2.76-.15,5.53.07,8.29.03.54-.13.78-.61.78-.11,0-.22-.02-.33-.04-.89-.22-2.44-1.01-4.02-1.35-.26-.06-.52-.09-.79-.09-.84-.08-1.64.4-1.97,1.18-.47,1.24.17,2.25,1.61,3.26.87.61,4.02,2.56,4.73,3.22.55.45.76,1.19.55,1.87-.07.56-1.66,7.99-11.59,12.79-.58.28-1.57.88.17,1.84,2.74,1.52,4.57,1.35,5.99,2.26,1.2.78.49,2.45,1.37,3.05,1.08.74,4.26-.05,8.36,1.3,3.44,1.13,5.54,4.34,11.64,4.34s8.26-3.22,11.64-4.34c4.1-1.36,7.29-.56,8.37-1.3.87-.6.16-2.28,1.37-3.05,1.42-.91,3.24-.75,5.99-2.26,1.74-.95.75-1.55.17-1.83"/>
</svg>