<?xml version="1.0" encoding="UTF-8"?>
<svg id="Layer_1" data-name="Layer 1" xmlns="http://www.w3.org/2000/svg" viewBox="0 0 56.69 46.99">
  <defs>
    <style>
      .cls-1 {
        fill: #fff;
        fill-rule: evenodd;
        stroke-width: 0px;
      }
    </style>
  </defs>
  <path id="Path_46071" data-name="Path 46071" class="cls-1" d="M3.9,20.23c15.22-6.63,25.37-11,30.45-13.11C48.84,1.08,51.85.04,53.82,0c.72-.02,1.43.2,2.02.61.42.36.68.87.74,1.41.11.68.14,1.37.09,2.06-.79,8.25-4.19,28.29-5.91,37.53-.73,3.91-2.17,5.22-3.57,5.35-3.03.28-5.33-2-8.27-3.93-4.59-3.01-7.19-4.89-11.65-7.83-5.15-3.4-1.81-5.26,1.12-8.32.77-.8,14.13-12.95,14.38-14.05.07-.33-.02-.67-.24-.92-.32-.2-.72-.24-1.08-.11-.46.1-7.8,4.96-22.02,14.56-1.62,1.27-3.6,2-5.66,2.09-2.77-.33-5.49-.98-8.12-1.92C2.39,25.48-.21,24.92.01,23.11c.12-.94,1.41-1.9,3.88-2.88"/>
</svg>