<?xml version="1.0" encoding="UTF-8"?>
<svg id="Layer_1" data-name="Layer 1" xmlns="http://www.w3.org/2000/svg" viewBox="0 0 56.69 65.94">
  <defs>
    <style>
      .cls-1 {
        fill: #000;
        stroke-width: 0px;
      }
    </style>
  </defs>
  <path id="Path_48068" data-name="Path 48068" class="cls-1" d="M44.12,30.56c-.28-.14-.57-.27-.86-.39-.51-9.37-5.63-14.73-14.22-14.78h-.12c-4.82-.17-9.38,2.17-12.04,6.19l4.72,3.24c1.65-2.4,4.42-3.77,7.32-3.62h.09c2.38-.17,4.7.73,6.35,2.45,1.1,1.39,1.8,3.06,2.01,4.82-2.68-.43-5.41-.57-8.12-.39-8.17.47-13.42,5.23-13.07,11.85.15,3.31,1.91,6.35,4.7,8.14,2.61,1.65,5.68,2.42,8.76,2.2,3.88-.04,7.54-1.82,9.96-4.85,1.91-2.6,3.09-5.67,3.39-8.89,1.93,1.09,3.46,2.77,4.38,4.79,1.83,4.57.67,9.8-2.93,13.17-4.17,3.99-9.84,6.03-15.6,5.6-6.71.43-13.23-2.34-17.59-7.46-3.96-5.76-5.9-12.67-5.53-19.66-.37-6.99,1.57-13.9,5.53-19.67,4.36-5.12,10.88-7.88,17.59-7.46,6.8-.41,13.41,2.36,17.9,7.49,2.07,2.65,3.58,5.71,4.41,8.97l5.53-1.48c-1.05-4.08-2.94-7.9-5.56-11.19C45.61,3.15,37.38-.4,28.87.04h-.04C20.38-.42,12.22,3.15,6.82,9.67,2.04,16.46-.35,24.65.04,32.94v.04c-.39,8.3,2,16.49,6.78,23.28,5.39,6.52,13.56,10.09,22.01,9.63h.04c7.25.44,14.36-2.2,19.57-7.27,5.3-5.07,6.95-12.86,4.17-19.64-1.7-3.75-4.72-6.75-8.49-8.42M29.35,44.46c-3.58.2-7.3-1.41-7.48-4.85-.14-2.55,1.82-5.4,7.71-5.74.67-.04,1.33-.06,1.98-.06,2,0,4,.2,5.96.61-.68,8.47-4.66,9.85-8.16,10.04"/>
</svg>