<?xml version="1.0" encoding="UTF-8"?>
<svg id="Layer_1" data-name="Layer 1" xmlns="http://www.w3.org/2000/svg" viewBox="0 0 56.69 64.86">
  <defs>
    <style>
      .cls-1 {
        fill: #fff;
        stroke-width: 0px;
      }
    </style>
  </defs>
  <path id="Path_24" data-name="Path 24" class="cls-1" d="M56.57,15.8c0-.29,0-.3-.31-.3-.73,0-1.47-.07-2.19-.19-2.63-.4-11.18-4.88-12.62-12.21-.17-.9-.29-1.82-.35-2.74q0-.35-.35-.35h-10.27c-.67,0-.58-.08-.58.59v43.5c.01.54-.03,1.08-.11,1.61-.84,5.13-5.68,8.61-10.81,7.76-.13-.02-.26-.04-.38-.07-.75-.17-1.49-.42-2.2-.73l-.18-.16c-.24-.2-.51-.37-.77-.55-4.27-2.8-5.47-8.54-2.67-12.81,1.13-1.72,2.8-3.02,4.75-3.69,1.06-.39,2.2-.56,3.33-.5.74.03,1.47.14,2.18.33.25.07.38-.02.39-.28v-.28c0-2.6-.1-8.29-.11-8.3,0-.75,0-1.5.02-2.25,0-.22-.1-.25-.29-.27-1.35-.16-2.7-.19-4.05-.09-7.51.55-14.12,5.17-17.21,12.04-2.05,4.58-2.35,9.76-.84,14.55,1.24,3.96,3.67,7.44,6.94,9.99.32.29.68.54,1.07.74h0l.51.45c.54.4,1.11.75,1.71,1.05,8.52,4.3,18.88,2.22,25.08-5.04,3.23-3.72,4.99-8.49,4.94-13.41.04-7.22.01-14.44.02-21.67,0-.17-.1-.42.09-.5.15-.07.3.13.44.22,2.66,1.77,5.61,3.04,8.73,3.76,1.82.43,3.68.66,5.55.67.59,0,.67-.03.67-.62.01-2.56-.12-9.57-.12-10.25Z"/>
</svg>