<?xml version="1.0" encoding="UTF-8"?>
<svg id="Layer_1" data-name="Layer 1" xmlns="http://www.w3.org/2000/svg" viewBox="0 0 56.69 48.9">
  <defs>
    <style>
      .cls-1 {
        fill: #fff;
        stroke-width: 0px;
      }
    </style>
  </defs>
  <g id="Group_33731" data-name="Group 33731">
    <path id="Path_48065" data-name="Path 48065" class="cls-1" d="M39.38,16.1c-5.04.06-9.88,2.01-13.55,5.47-3.74,3.49-5.59,8.55-5,13.63-2.06-.26-3.93-.53-5.81-.69-.68-.08-1.36.04-1.97.33-1.82,1.03-3.58,2.2-5.66,3.49.38-1.73.63-3.23,1.06-4.69.41-.88.05-1.92-.81-2.36C1.32,26.83-1.34,20.16.65,13.29,2.49,6.93,7.02,3.08,13.17,1.07c8.3-2.75,17.43-.08,22.93,6.72,1.87,2.39,3.01,5.28,3.27,8.31M15.16,13.95c0-1.31-1.03-2.38-2.33-2.43-1.3-.05-2.4.96-2.45,2.26,0,0,0,.01,0,.02-.05,1.28.95,2.37,2.24,2.41.02,0,.05,0,.07,0,1.31.05,2.41-.96,2.48-2.26M27.8,11.52c-1.31.03-2.36,1.09-2.37,2.39.03,1.31,1.11,2.34,2.42,2.31,0,0,0,0,0,0,1.3-.02,2.34-1.08,2.32-2.38-.02-1.3-1.08-2.34-2.38-2.32h0"/>
    <path id="Path_48066" data-name="Path 48066" class="cls-1" d="M51.2,48.9c-1.5-.91-3.12-1.59-4.82-2.02-1.62-.17-3.33.76-5.02.94-4.97.63-9.96-1-13.61-4.44-7.26-6.71-6.23-17.01,2.18-22.5,7.46-4.89,18.41-3.26,23.67,3.52,4.67,5.63,3.98,13.96-1.55,18.75-1.62,1.44-2.2,2.62-1.16,4.52.16.4.27.81.32,1.24M32.24,30.54c1.08,0,1.96-.87,1.97-1.95s-.87-1.96-1.95-1.97h0c-1.08,0-1.96.87-1.97,1.95s.87,1.96,1.95,1.97M44.46,26.62c-1.04,0-1.9.83-1.95,1.88-.03,1.07.81,1.96,1.87,1.99,1.07.03,1.96-.81,1.99-1.87.03-1.07-.81-1.96-1.87-1.99-.02,0-.03,0-.05,0"/>
  </g>
</svg>