<?xml version="1.0" encoding="UTF-8"?>
<svg id="Layer_1" data-name="Layer 1" xmlns="http://www.w3.org/2000/svg" viewBox="0 0 56.69 56.96">
  <defs>
    <style>
      .cls-1 {
        fill: #000;
        stroke-width: 0px;
      }
    </style>
  </defs>
  <path id="Path_37187" data-name="Path 37187" class="cls-1" d="M48.43,8.28c-11.02-11.03-28.89-11.05-39.92-.03C-.53,17.28-2.38,31.26,4,42.33L0,56.96l14.97-3.92c4.14,2.25,8.78,3.43,13.49,3.43h.01c15.59,0,28.23-12.64,28.22-28.23,0-7.48-2.97-14.66-8.26-19.95M28.47,51.7h-.01c-4.2,0-8.33-1.13-11.94-3.27l-.86-.51-8.88,2.34,2.37-8.67-.56-.88C1.7,29.73,5.02,15.25,15.99,8.36c10.98-6.89,25.46-3.57,32.34,7.4,6.89,10.98,3.57,25.46-7.4,32.34-3.74,2.34-8.06,3.59-12.47,3.59h0ZM41.34,34.13c-.71-.35-4.17-2.06-4.82-2.3s-1.12-.35-1.59.35-1.82,2.3-2.23,2.77-.82.53-1.53.18c-2.08-.83-4-2.01-5.67-3.5-1.54-1.42-2.86-3.07-3.92-4.88-.41-.71-.04-1.09.31-1.44.32-.31.71-.82,1.06-1.24.29-.36.53-.75.71-1.18.19-.4.17-.86-.06-1.24-.18-.35-1.59-3.82-2.17-5.24-.57-1.37-1.15-1.19-1.59-1.21s-.88-.02-1.35-.02c-.72.02-1.4.34-1.88.88-1.61,1.53-2.51,3.66-2.47,5.88.23,2.66,1.23,5.19,2.88,7.29.35.47,4.97,7.59,12.05,10.65,1.31.57,2.65,1.06,4.02,1.48,1.44.44,2.96.53,4.44.28,1.99-.41,3.71-1.63,4.76-3.36.46-1.06.61-2.23.41-3.36-.18-.29-.65-.47-1.35-.82v.02Z"/>
</svg>