<?xml version="1.0" encoding="UTF-8"?>
<svg id="Layer_1" data-name="Layer 1" xmlns="http://www.w3.org/2000/svg" viewBox="0 0 56.69 39.69">
  <defs>
    <style>
      .cls-1 {
        fill: #000;
        stroke-width: 0px;
      }
    </style>
  </defs>
  <path class="cls-1" d="M55.51,6.2c-.65-2.44-2.57-4.36-5.01-5.01-4.42-1.18-22.15-1.18-22.15-1.18,0,0-17.73,0-22.15,1.18C3.76,1.84,1.84,3.76,1.18,6.2c-1.18,4.42-1.18,13.65-1.18,13.65,0,0,0,9.22,1.18,13.65.65,2.44,2.57,4.36,5.01,5.01,4.42,1.18,22.15,1.18,22.15,1.18,0,0,17.73,0,22.15-1.18,2.44-.65,4.36-2.57,5.01-5.01,1.18-4.42,1.18-13.65,1.18-13.65,0,0,0-9.22-1.18-13.65ZM22.68,28.35V11.34l14.73,8.5-14.73,8.5Z"/>
</svg>