<?xml version="1.0" encoding="UTF-8"?>
<svg id="Layer_1" data-name="Layer 1" xmlns="http://www.w3.org/2000/svg" viewBox="0 0 28.35 28.35">
  <path d="M20.72,9.61c-.59-.24-1.23-.36-1.87-.35-.64,0-1.27.11-1.85.35-.42.17-.81.42-1.15.71v.95c.07-.09.14-.18.22-.27.34-.37.76-.66,1.22-.85.5-.2,1.03-.3,1.57-.3.54,0,1.08.09,1.58.3.46.19.88.48,1.22.85.35.39.62.86.78,1.36.19.58.29,1.19.28,1.81,0,.61-.08,1.23-.28,1.81-.17.5-.43.96-.78,1.35-.34.37-.75.66-1.22.85-.5.2-1.04.3-1.58.29-.54,0-1.07-.09-1.57-.29-.47-.19-.88-.48-1.22-.85-.08-.09-.15-.18-.22-.27v.96c.34.3.73.54,1.15.71,1.2.47,2.52.47,3.72,0,.55-.22,1.04-.56,1.45-.99.41-.45.73-.97.94-1.55.23-.65.34-1.33.33-2.02,0-.69-.1-1.37-.33-2.01-.2-.58-.52-1.1-.94-1.55h0c-.41-.43-.9-.77-1.45-1Z"/>
  <path d="M13.06,18.87h.6v-9.61h-.47c-.05,0-.1,0-.15.02-.05.02-.09.06-.11.11l-3.88,6.68c-.07.13-.13.27-.18.41-.03-.07-.06-.14-.08-.21-.03-.07-.06-.14-.1-.2l-3.77-6.67s0,0,0,0v1.18l3.64,6.46c.05.11.15.18.27.18h.11c.12,0,.22-.07.27-.18l3.88-6.72c-.01.13-.02.25-.02.38v8.19Z"/>
  <path d="M27.64,21.26c-.39,0-.71.32-.71.71v2.83c0,1.17-.95,2.13-2.13,2.13h-2.83c-.39,0-.71.32-.71.71s.32.71.71.71h2.84c1.96,0,3.54-1.59,3.54-3.54v-2.83c0-.39-.32-.71-.71-.71Z"/>
  <path d="M24.8,0h-2.83C21.58,0,21.26.32,21.26.71s.32.71.71.71h2.83c1.17,0,2.13.95,2.13,2.13v2.83c0,.39.32.71.71.71s.71-.32.71-.71v-2.83h0C28.35,1.59,26.76,0,24.8,0Z"/>
  <path d="M7.09,27.64c0-.39-.32-.71-.71-.71h-2.83c-1.17,0-2.13-.95-2.13-2.13v-2.83c0-.39-.32-.71-.71-.71S0,21.58,0,21.97v2.83H0c0,1.96,1.59,3.54,3.54,3.54h2.83c.39,0,.71-.32.71-.71Z"/>
  <path d="M.71,7.09c.39,0,.71-.32.71-.71v-2.83c0-1.17.95-2.13,2.13-2.13h2.83c.39,0,.71-.32.71-.71S6.77,0,6.38,0h-2.84C1.59,0,0,1.59,0,3.54v2.83C0,6.77.32,7.09.71,7.09Z"/>
</svg>