<?xml version="1.0" encoding="UTF-8"?>
<svg id="Layer_1" data-name="Layer 1" xmlns="http://www.w3.org/2000/svg" viewBox="0 0 85.04 85.04">
  <defs>
    <style>
      .cls-1 {
        fill: #ea4335;
      }

      .cls-2 {
        fill: #fbbc04;
      }

      .cls-3 {
        fill: #4285f4;
      }

      .cls-4 {
        fill: none;
      }

      .cls-5 {
        fill: #34a853;
      }
    </style>
  </defs>
  <path class="cls-4" d="M59.85,58.87h0V25.18h-11.89s-33.69,0-33.69,0c1.44.84,2.81,2.34,4.11,3.44,5.79,4.9,8.97,11.77,8.97,19.35s-3.19,14.44-8.97,19.35c-1.3,1.1-2.67,2.61-4.11,3.44h10.65s0,0,0,0h34.92v-11.88Z"/>
  <path class="cls-1" d="M85.04,47.97c0-3.05-1.05-5.63-3.16-7.74s-4.69-3.16-7.74-3.16v-17.44c0-2.4-.85-4.45-2.56-6.16s-3.76-2.56-6.16-2.56h-17.44v14.28h0s11.89,0,11.89,0v33.69h14.28c3.05,0,5.63-1.05,7.74-3.16s3.16-4.69,3.16-7.74h0Z"/>
  <path class="cls-3" d="M14.28,25.18h33.69v-14.28h0c0-3.05-1.05-5.63-3.16-7.74s-4.69-3.16-7.74-3.16h0c-3.05,0-5.63,1.06-7.74,3.16s-3.16,4.69-3.16,7.74H8.72c-2.4,0-4.45.85-6.16,2.56C.85,15.17,0,17.23,0,19.62v5.56h14.28s0,0,0,0Z"/>
  <polygon class="cls-5" points="24.93 70.76 24.94 70.76 24.93 70.76 24.93 70.76"/>
  <path class="cls-5" d="M18.39,67.32c5.79-4.9,8.97-11.77,8.97-19.35s-3.19-14.44-8.97-19.35c-1.3-1.1-2.67-2.61-4.11-3.44,0,0,0,0,0,0H0v11.01c3.49,0,6.54,1.11,9.16,3.33,2.62,2.22,3.93,5.03,3.93,8.45s-1.31,6.23-3.93,8.45c-2.62,2.22-5.67,3.33-9.16,3.33v16.57c0,2.4.85,4.45,2.56,6.16,1.71,1.71,3.76,2.56,6.16,2.56h16.21v-14.28h-10.65c1.44-.84,2.81-2.34,4.11-3.44Z"/>
  <path class="cls-2" d="M59.85,58.87v11.88H24.94v14.28h40.48c2.4,0,4.45-.85,6.16-2.56,1.71-1.71,2.56-3.76,2.56-6.16v-17.44h-14.28Z"/>
</svg>