<?xml version="1.0" encoding="UTF-8"?>
<svg id="Layer_1" data-name="Layer 1" xmlns="http://www.w3.org/2000/svg" xmlns:xlink="http://www.w3.org/1999/xlink" viewBox="0 0 278.54 28.35">
  <defs>
    <style>
      .cls-1 {
        fill: url(#linear-gradient-2);
      }

      .cls-2 {
        fill: #fff;
      }

      .cls-3 {
        fill: #fbbf12;
      }

      .cls-4 {
        fill: none;
      }

      .cls-5 {
        fill: url(#linear-gradient-4);
      }

      .cls-6 {
        fill: #1a73e8;
      }

      .cls-7 {
        fill: url(#linear-gradient-3);
      }

      .cls-8 {
        fill: url(#linear-gradient-5);
      }

      .cls-9 {
        fill: url(#linear-gradient-6);
      }

      .cls-10 {
        fill: url(#linear-gradient);
      }
    </style>
    <linearGradient id="linear-gradient" x1="-262.32" y1="395.4" x2="-262.32" y2="395.4" gradientTransform="translate(7023.73 7415.01) scale(25.95 -18.73)" gradientUnits="userSpaceOnUse">
      <stop offset="0" stop-color="#db3328"/>
      <stop offset="1" stop-color="#e53d30"/>
    </linearGradient>
    <linearGradient id="linear-gradient-2" x1="-264.75" y1="401.57" x2="-264.74" y2="401.57" gradientTransform="translate(13121.18 6575.67) rotate(-30) scale(29.83 -30.2)" gradientUnits="userSpaceOnUse">
      <stop offset="0" stop-color="#32a651"/>
      <stop offset="1" stop-color="#279847"/>
    </linearGradient>
    <linearGradient id="linear-gradient-3" y1="395.21" y2="395.21" xlink:href="#linear-gradient"/>
    <linearGradient id="linear-gradient-4" y1="401.78" y2="401.78" xlink:href="#linear-gradient-2"/>
    <linearGradient id="linear-gradient-5" x1="-262.32" y1="394.93" x2="-262.32" y2="394.93" xlink:href="#linear-gradient"/>
    <linearGradient id="linear-gradient-6" x1="-264.75" y1="401.58" x2="-264.74" y2="401.58" xlink:href="#linear-gradient-2"/>
  </defs>
  <polygon class="cls-4" points="236.22 17.71 236.22 17.71 236.22 17.72 230.08 28.35 236.22 17.72 236.22 17.71"/>
  <polygon class="cls-2" points="3.63 14.84 18.78 14.84 18.78 11.62 3.63 11.62 3.63 3.23 19.81 3.23 19.81 0 0 0 0 27.39 20.44 27.39 20.44 24.16 3.63 24.16 3.63 14.84"/>
  <path class="cls-2" d="M54.69,0h-3.94l-5.51,7.27c-.83,1.08-1.56,2.12-2.17,3.12-.44-.78-1.17-1.91-2.2-3.36L35.89,0h-4.32l9.34,13.12-10.59,14.28h4.35l6.88-9.55c.26-.37.7-1.06,1.31-2.06.41.66.81,1.27,1.2,1.83l6.9,9.77h4.48l-10.37-14.48L54.69,0Z"/>
  <polygon class="cls-2" points="64.23 3.23 73.25 3.23 73.25 27.39 76.88 27.39 76.88 3.23 85.94 3.23 85.94 0 64.23 0 64.23 3.23"/>
  <polygon class="cls-2" points="101.01 14.84 116.17 14.84 116.17 11.62 101.01 11.62 101.01 3.23 117.19 3.23 117.19 0 97.39 0 97.39 27.39 117.83 27.39 117.83 24.16 101.01 24.16 101.01 14.84"/>
  <polygon class="cls-2" points="148.56 21.51 134.17 0 130.45 0 130.45 27.39 133.93 27.39 133.93 5.87 148.32 27.39 152.04 27.39 152.04 0 148.56 0 148.56 21.51"/>
  <path class="cls-2" d="M181.68,13.44c-1.1-.5-3.12-1.08-6.06-1.75-2.95-.67-4.77-1.32-5.47-1.95-.71-.64-1.07-1.45-1.07-2.43,0-1.13.5-2.1,1.5-2.91,1-.8,2.6-1.21,4.79-1.21s3.7.44,4.77,1.33c1.08.88,1.71,2.19,1.9,3.92l3.48-.26c-.06-1.61-.51-3.05-1.35-4.32-.83-1.27-2.03-2.23-3.58-2.89C179.06.33,177.27,0,175.24,0,173.39,0,171.72.31,170.21.93s-2.65,1.54-3.44,2.74c-.78,1.2-1.18,2.5-1.18,3.88,0,1.26.32,2.4.96,3.41.64,1.02,1.62,1.87,2.92,2.55,1.01.54,2.77,1.11,5.29,1.71,2.52.61,4.14,1.05,4.88,1.34,1.15.44,1.97.98,2.47,1.62.5.64.75,1.39.75,2.25s-.26,1.63-.77,2.34c-.52.72-1.31,1.28-2.36,1.69-1.06.41-2.28.62-3.66.62-1.56,0-2.96-.27-4.2-.81-1.25-.54-2.17-1.25-2.76-2.13-.59-.88-.97-2-1.13-3.37l-3.42.3c.05,1.83.55,3.47,1.5,4.92.95,1.45,2.27,2.54,3.94,3.26,1.68.72,3.75,1.08,6.23,1.08,1.96,0,3.71-.36,5.28-1.08,1.56-.72,2.76-1.72,3.6-3.01.83-1.29,1.25-2.66,1.25-4.12s-.38-2.77-1.14-3.9c-.76-1.13-1.94-2.06-3.53-2.79Z"/>
  <rect class="cls-2" x="199.58" y="0" width="3.63" height="27.39"/>
  <polygon class="cls-2" points="275.07 0 275.07 21.51 260.68 0 256.96 0 256.96 27.39 260.44 27.39 260.44 5.87 274.83 27.39 278.54 27.39 278.54 0 275.07 0"/>
  <path class="cls-3" d="M244.25,14.18c0-2.49-.65-4.93-1.9-7.09h-12.27c3.91,0,7.09,3.17,7.09,7.09h0c0,1.29-.35,2.49-.95,3.54h0s-6.14,10.63-6.14,10.63c7.83,0,14.17-6.34,14.17-14.17Z"/>
  <path class="cls-10" d="M222.99,14.18c0-3.91,3.17-7.09,7.08-7.09h0s12.27,0,12.27,0C239.82,2.7,235.15,0,230.08,0c-5.06,0-9.74,2.7-12.27,7.09l6.01,10.4c-.52-.99-.82-2.11-.82-3.31Z"/>
  <path class="cls-1" d="M236.22,17.71c-1.22,2.12-3.51,3.55-6.13,3.55-2.63,0-4.91-1.43-6.14-3.55h0s-.07-.12-.07-.12c0-.01-.02-.03-.02-.04l-6.04-10.46c-1.25,2.15-1.9,4.6-1.9,7.09,0,7.83,6.35,14.17,14.17,14.17l6.14-10.63h0Z"/>
  <path class="cls-7" d="M223.82,17.49l-6.01-10.4,6.04,10.46s-.02-.04-.03-.06Z"/>
  <path class="cls-5" d="M223.82,17.49l-6.01-10.4,6.04,10.46s-.02-.04-.03-.06Z"/>
  <path class="cls-8" d="M223.94,17.72h0s-.05-.08-.07-.12l.07.12Z"/>
  <path class="cls-9" d="M223.94,17.72h0s-.05-.08-.07-.12l.07.12Z"/>
  <path class="cls-2" d="M222.99,14.18c0,1.2.3,2.32.82,3.31.01.02.02.04.03.06,0,.01.02.03.02.04.02.04.05.08.07.12,1.23,2.12,3.51,3.55,6.14,3.55,2.62,0,4.91-1.43,6.13-3.55h0c.6-1.04.95-2.25.95-3.54h0c0-3.91-3.17-7.08-7.09-7.08h0c-3.91,0-7.08,3.18-7.08,7.09ZM230.08,8.42c3.18,0,5.76,2.58,5.76,5.76s-2.58,5.76-5.76,5.76-5.76-2.58-5.76-5.76,2.58-5.76,5.76-5.76Z"/>
  <circle class="cls-6" cx="230.08" cy="14.17" r="5.76" transform="translate(2.9 53.24) rotate(-13.28)"/>
</svg>