<?xml version="1.0" encoding="UTF-8"?>
<svg id="Layer_1" data-name="Layer 1" xmlns="http://www.w3.org/2000/svg" viewBox="0 0 13.35 90.37">
  <path d="M13.13,90.37H.22v-5.72c0-1.15.12-2.02.35-2.62s.64-1.08,1.23-1.43,1.24-.54,1.95-.54c.92,0,1.69.3,2.32.89s1.03,1.51,1.2,2.75c.22-.45.43-.8.64-1.03.46-.5,1.03-.97,1.72-1.42l3.51-2.24v2.15l-2.68,1.71c-.77.5-1.37.91-1.78,1.23s-.7.61-.86.87-.28.51-.34.78c-.04.19-.06.51-.06.95v1.98h5.73v1.71ZM5.92,88.67v-3.67c0-.78-.08-1.39-.24-1.83s-.42-.77-.77-1-.74-.34-1.16-.34c-.61,0-1.11.22-1.51.66s-.59,1.14-.59,2.1v4.08h4.27Z"/>
  <path d="M13.13,73.74H.22v-9.33h1.52v7.62h3.95v-7.14h1.51v7.14h4.39v-7.92h1.52v9.63Z"/>
  <path d="M8.6,48.94l.43-1.71c1.4.36,2.47,1,3.21,1.93s1.1,2.07,1.1,3.41-.28,2.52-.85,3.39-1.39,1.53-2.46,1.99-2.23.68-3.46.68c-1.34,0-2.52-.26-3.52-.77s-1.76-1.24-2.28-2.19-.78-1.99-.78-3.13c0-1.29.33-2.38.99-3.26s1.58-1.49,2.77-1.84l.4,1.68c-.94.3-1.62.73-2.05,1.3s-.64,1.29-.64,2.15c0,.99.24,1.82.71,2.49s1.11,1.13,1.91,1.4,1.63.4,2.48.4c1.1,0,2.06-.16,2.87-.48s1.43-.82,1.84-1.49.61-1.41.61-2.19c0-.96-.28-1.77-.83-2.43s-1.37-1.11-2.46-1.35Z"/>
  <path d="M13.13,41.48H.22v-9.33h1.52v7.62h3.95v-7.14h1.51v7.14h4.39v-7.92h1.52v9.63Z"/>
  <path d="M13.13,25.9H.22v-1.75l10.13-6.78H.22v-1.64h12.91v1.75l-10.14,6.78h10.14v1.64Z"/>
  <path d="M13.13,5.98H1.74v4.25H.22V0h1.52v4.27h11.38v1.71Z"/>
</svg>