<?xml version="1.0" encoding="UTF-8"?>
<svg id="Layer_1" data-name="Layer 1" xmlns="http://www.w3.org/2000/svg" viewBox="0 0 134.63 28.35">
  <defs>
    <style>
      .cls-1 {
        fill: #ea4335;
      }

      .cls-2 {
        fill: #fbbc04;
      }

      .cls-3 {
        fill: #4285f4;
      }

      .cls-4 {
        fill: #34a853;
      }
    </style>
  </defs>
  <rect class="cls-3" x="59.96" width="28.35" height="28.35"/>
  <rect class="cls-1" x="89.3" width="14.17" height="28.35"/>
  <rect class="cls-2" x="104.48" width="10.63" height="28.35"/>
  <rect class="cls-4" x="116.11" width="7.09" height="28.35"/>
  <rect class="cls-3" x="124.19" width="4.25" height="28.35"/>
  <rect class="cls-1" x="129.44" width="2.13" height="28.35"/>
  <rect class="cls-2" x="132.57" width=".71" height="28.35"/>
  <rect class="cls-4" x="134.28" width=".35" height="28.35"/>
  <path d="M35.91.28c-.23.18-.38.4-.45.63l-5.87,19.7c-.11.34-.19.71-.26,1.11-.07.4-.14.81-.22,1.25-.18-.88-.4-1.67-.63-2.35L21.86.91c-.09-.26-.25-.48-.46-.65-.22-.17-.5-.26-.84-.26h-1.11c-.33,0-.61.1-.84.29-.23.19-.39.4-.46.62l-6.67,19.7c-.12.34-.22.72-.32,1.14-.09.42-.18.85-.28,1.3-.08-.45-.16-.88-.25-1.29-.09-.41-.18-.79-.29-1.15L4.49.91c-.08-.26-.23-.48-.45-.65-.23-.17-.51-.26-.85-.26H0l8.84,28.35h3.44l7.22-21.62c.07-.2.13-.42.19-.66.06-.24.12-.5.19-.76.12.54.25,1.02.4,1.42l7.18,21.62h3.44L39.74,0h-2.99c-.33,0-.61.09-.84.28Z"/>
  <path d="M55.88,14.72c-.63-.54-1.33-.99-2.13-1.35-.79-.35-1.61-.67-2.44-.96-.83-.28-1.64-.56-2.44-.82-.79-.26-1.5-.58-2.13-.94-.63-.36-1.13-.8-1.51-1.31-.38-.51-.57-1.15-.57-1.93,0-.61.11-1.17.33-1.69s.55-.98.98-1.36c.43-.39.97-.69,1.62-.92.65-.23,1.39-.34,2.23-.34.89,0,1.65.11,2.27.33.63.22,1.16.46,1.61.73.45.26.81.51,1.1.73s.55.33.76.33c.21,0,.37-.05.5-.15.13-.1.25-.24.37-.43l.91-1.78c-.95-.93-2.07-1.64-3.35-2.13-1.28-.49-2.69-.74-4.24-.74-1.38,0-2.6.21-3.67.64-1.06.43-1.96.99-2.68,1.7-.72.71-1.27,1.52-1.65,2.44-.38.92-.57,1.86-.57,2.84,0,1.23.19,2.25.57,3.09.38.83.88,1.53,1.5,2.08.62.55,1.33,1.01,2.12,1.35.79.35,1.61.65,2.44.92s1.64.52,2.44.77c.79.25,1.5.56,2.12.92.62.36,1.12.81,1.5,1.35.38.53.57,1.22.57,2.06,0,.76-.13,1.45-.39,2.07-.26.62-.63,1.15-1.11,1.6-.48.44-1.07.79-1.77,1.03-.7.25-1.49.37-2.38.37-1.07,0-1.98-.14-2.72-.43-.74-.29-1.37-.61-1.9-.96-.52-.35-.96-.67-1.31-.96-.35-.29-.66-.44-.93-.44-.18,0-.34.05-.49.15-.15.1-.27.22-.38.36l-1.08,1.78c1.04,1.11,2.31,1.99,3.78,2.64,1.48.65,3.11.98,4.9.98,1.47,0,2.78-.23,3.94-.68,1.15-.45,2.13-1.07,2.92-1.86.79-.79,1.4-1.71,1.81-2.78.41-1.06.62-2.2.62-3.42,0-1.15-.19-2.12-.57-2.9-.38-.79-.88-1.45-1.51-1.99Z"/>
</svg>