<?xml version="1.0" encoding="UTF-8"?>
<svg id="Layer_1" data-name="Layer 1" xmlns="http://www.w3.org/2000/svg" viewBox="0 0 35.95 56.69">
  <path d="M34.81,33.43c-.76-1.57-1.77-2.9-3.02-3.98-1.25-1.08-2.67-1.98-4.26-2.69-1.59-.71-3.21-1.35-4.88-1.91-1.66-.57-3.29-1.12-4.88-1.65-1.59-.53-3-1.15-4.26-1.88-1.25-.72-2.26-1.59-3.02-2.61-.76-1.02-1.14-2.3-1.14-3.85,0-1.21.22-2.34.66-3.39s1.09-1.95,1.95-2.73c.87-.77,1.94-1.39,3.23-1.84,1.29-.45,2.77-.68,4.45-.68,1.78,0,3.3.22,4.55.66,1.25.44,2.32.92,3.21,1.45.89.53,1.63,1.01,2.21,1.45s1.09.66,1.53.66c.41,0,.75-.1,1.01-.29.26-.19.5-.48.73-.87l1.82-3.56c-1.91-1.86-4.14-3.28-6.69-4.26-2.55-.98-5.38-1.47-8.47-1.47-2.76,0-5.2.43-7.33,1.28-2.13.85-3.92,1.99-5.36,3.41-1.45,1.42-2.55,3.04-3.31,4.87-.76,1.83-1.14,3.73-1.14,5.69,0,2.45.38,4.51,1.14,6.17.76,1.66,1.76,3.05,3,4.16,1.24,1.11,2.65,2.01,4.24,2.71,1.59.7,3.21,1.31,4.88,1.84s3.29,1.04,4.87,1.55c1.59.5,3,1.12,4.24,1.84,1.24.72,2.24,1.62,3,2.69.76,1.07,1.14,2.44,1.14,4.12,0,1.52-.26,2.9-.77,4.14-.52,1.24-1.26,2.3-2.23,3.19-.97.89-2.15,1.58-3.54,2.07-1.39.49-2.98.74-4.76.74-2.14,0-3.95-.29-5.44-.87-1.48-.58-2.75-1.22-3.79-1.92-1.04-.7-1.92-1.34-2.61-1.92-.7-.58-1.32-.87-1.86-.87-.36,0-.69.1-.99.29-.3.19-.55.43-.75.72l-2.17,3.56c2.09,2.22,4.61,3.98,7.57,5.28,2.95,1.3,6.22,1.96,9.81,1.96,2.94,0,5.57-.45,7.88-1.35,2.31-.9,4.26-2.14,5.84-3.71,1.59-1.57,2.79-3.43,3.62-5.55.83-2.13,1.24-4.4,1.24-6.83,0-2.3-.38-4.23-1.14-5.8Z"/>
</svg>