<?xml version="1.0" encoding="UTF-8"?>
<svg id="Layer_1" data-name="Layer 1" xmlns="http://www.w3.org/2000/svg" viewBox="0 0 79.48 56.69">
  <path d="M71.82.55c-.46.37-.76.79-.89,1.27l-11.75,39.4c-.21.69-.38,1.43-.51,2.22-.13.79-.28,1.62-.44,2.49-.37-1.77-.79-3.34-1.27-4.71L43.72,1.82c-.19-.53-.49-.96-.93-1.31-.43-.34-1-.51-1.68-.51h-2.21c-.66,0-1.22.19-1.68.57-.46.38-.77.8-.93,1.25l-13.33,39.4c-.24.69-.45,1.44-.63,2.28-.18.83-.37,1.69-.55,2.59-.16-.9-.32-1.75-.49-2.57-.17-.82-.36-1.58-.57-2.29L8.98,1.82c-.16-.53-.46-.96-.91-1.31-.45-.34-1.02-.51-1.7-.51H0l17.68,56.69h6.88l14.44-43.24c.13-.39.26-.84.38-1.33.12-.49.24-.99.37-1.52.24,1.08.5,2.03.79,2.85l14.36,43.24h6.88L79.48,0h-5.97c-.66,0-1.22.19-1.68.55Z"/>
</svg>