<?xml version="1.0" encoding="UTF-8"?>
<svg id="Layer_1" data-name="Layer 1" xmlns="http://www.w3.org/2000/svg" viewBox="0 0 700 700">
  <defs>
    <style>
      .cls-1 {
        fill: #fff;
      }
    </style>
  </defs>
  <g>
    <path class="cls-1" d="M50,0H0v650c0,27.61,22.39,50,50,50h650v-50H50V0Z"/>
    <path class="cls-1" d="M525,0v50h89.75l-189.75,189.75-107.25-107.5c-9.72-9.8-25.55-9.87-35.36-.14-.05.05-.1.1-.14.14l-182.25,182.5,35.25,35.25,164.75-164.75,107.25,107.5c9.72,9.8,25.55,9.87,35.36.14.05-.05.1-.1.14-.14l207.25-207.5v89.75h50V0h-175Z"/>
  </g>
  <g>
    <path class="cls-1" d="M340.43,425.48h18.74v81.8c0,14.23-1.61,25.53-4.83,33.9s-9.03,15.18-17.43,20.43c-8.4,5.25-19.43,7.87-33.08,7.87s-24.11-2.29-32.55-6.86-14.45-11.19-18.06-19.85c-3.61-8.66-5.41-20.49-5.41-35.49v-81.8h18.74v81.7c0,12.3,1.14,21.36,3.43,27.19,2.29,5.83,6.21,10.32,11.78,13.47,5.57,3.15,12.38,4.73,20.43,4.73,13.78,0,23.6-3.12,29.46-9.37s8.79-18.25,8.79-36.02v-81.7Z"/>
    <path class="cls-1" d="M430.21,567.06v-141.58h62.77c12.62,0,22.21,1.27,28.78,3.81,6.57,2.54,11.81,7.03,15.74,13.47,3.93,6.44,5.89,13.55,5.89,21.34,0,10.04-3.25,18.51-9.75,25.4s-16.55,11.27-30.13,13.13c4.96,2.38,8.72,4.73,11.3,7.05,5.47,5.02,10.66,11.3,15.55,18.83l24.63,38.53h-23.56l-18.74-29.46c-5.47-8.5-9.98-15-13.52-19.51-3.54-4.51-6.71-7.66-9.51-9.46s-5.65-3.06-8.55-3.77c-2.12-.45-5.6-.68-10.43-.68h-21.73v62.87h-18.74ZM448.95,487.97h40.27c8.56,0,15.26-.89,20.09-2.66,4.83-1.77,8.5-4.6,11.01-8.5s3.77-8.13,3.77-12.7c0-6.7-2.43-12.2-7.29-16.51s-12.54-6.47-23.03-6.47h-44.81v46.84Z"/>
    <path class="cls-1" d="M611.54,567.06v-141.58h18.74v124.87h69.73v16.71h-88.46Z"/>
  </g>
</svg>