<?xml version="1.0" encoding="UTF-8"?>
<svg id="Layer_1" data-name="Layer 1" xmlns="http://www.w3.org/2000/svg" viewBox="0 0 30.4 30.01">
  <defs>
    <style>
      .cls-1 {
        fill: #fff;
        stroke-width: 0px;
      }
    </style>
  </defs>
  <g id="Group_15480" data-name="Group 15480">
    <path id="Path_40817" data-name="Path 40817" class="cls-1" d="M1.92,3.45v4.97C5.56.98,14.54-2.11,21.99,1.53c7.44,3.64,10.53,12.62,6.89,20.06s-12.62,10.53-20.06,6.89c-4.53-2.21-7.65-6.56-8.29-11.56h1.94c1.06,7.15,7.72,12.08,14.87,11.01,7.15-1.06,12.08-7.72,11.01-14.87-1.06-7.15-7.72-12.08-14.87-11.01-4.25.63-7.92,3.31-9.81,7.17h4.04v1.92H0V3.44h1.92ZM21.16,16.92h-5.77v-7.7h-1.92v9.62h7.7v-1.92Z"/>
  </g>
</svg>