<?xml version="1.0" encoding="UTF-8"?>
<svg id="Layer_1" data-name="Layer 1" xmlns="http://www.w3.org/2000/svg" viewBox="0 0 500 500">
  <defs>
    <style>
      .cls-1 {
        fill: #fff;
      }
    </style>
  </defs>
  <path class="cls-1" d="M16.67,500c-4.27,0-8.53-1.63-11.79-4.88-6.51-6.51-6.51-17.06,0-23.57l204.88-204.88h-89.39c-9.2,0-16.67-7.46-16.67-16.67s7.46-16.67,16.67-16.67h129.53c.32,0,.63,0,.95.02.02,0,.04,0,.06,0,1.85.1,3.62.5,5.26,1.15.01,0,.02,0,.03.01,0,0,.01,0,.02,0,1.88.75,3.65,1.87,5.21,3.33.01.01.03.02.04.04,0,0,.02.02.03.02.02.02.04.04.06.06,0,0,0,0,.01.01.15.15.3.3.45.45h0s.05.05.07.07c0,0,0,0,.01.01.02.02.04.04.05.06.01.01.02.03.04.04,0,0,.02.02.03.03,1.3,1.4,2.32,2.97,3.05,4.64,0,.02.02.04.03.06,0,0,0,0,0,.01.89,2.04,1.38,4.28,1.38,6.64v129.63c0,9.2-7.46,16.67-16.67,16.67s-16.67-7.46-16.67-16.67v-89.39L28.45,495.12c-3.25,3.25-7.52,4.88-11.79,4.88ZM450,500h-200c-9.21,0-16.67-7.46-16.67-16.67s7.46-16.67,16.67-16.67h200c9.19,0,16.67-7.48,16.67-16.67V50c0-9.19-7.48-16.67-16.67-16.67H50c-9.19,0-16.67,7.48-16.67,16.67v200c0,9.2-7.46,16.67-16.67,16.67S0,259.2,0,250V50C0,22.43,22.43,0,50,0h400c27.57,0,50,22.43,50,50v400c0,27.57-22.43,50-50,50Z"/>
</svg>