<svg id="Group_34987" data-name="Group 34987" xmlns="http://www.w3.org/2000/svg" xmlns:xlink="http://www.w3.org/1999/xlink" width="22" height="22" viewBox="0 0 22 22">
  <defs>
    <clipPath id="clip-path">
      <rect id="Rectangle_15044" data-name="Rectangle 15044" width="22" height="22" fill="#fff"/>
    </clipPath>
  </defs>
  <g id="Group_33688" data-name="Group 33688" transform="translate(0 0)" clip-path="url(#clip-path)">
    <path id="Path_45984" data-name="Path 45984" d="M18.563,15.125a3.427,3.427,0,0,0-2.471,1.049l-9.259-4.63a3.377,3.377,0,0,0,0-1.09l9.259-4.63a3.437,3.437,0,1,0-.966-2.388,3.5,3.5,0,0,0,.043.545l-9.26,4.63a3.437,3.437,0,1,0,0,4.776l9.26,4.63a3.394,3.394,0,0,0-.043.544,3.437,3.437,0,1,0,3.437-3.437" transform="translate(0 0)" fill="#fff"/>
  </g>
</svg>
